<svg xmlns="http://www.w3.org/2000/svg" width="424.122" height="236.196" viewBox="0 0 112.216 62.493">
  <path d="M-1.844 38.846l.728-1.15 2.451-4.005 2.43-4.051 2.451-4.005 2.451-3.919 2.451-3.741 2.451-3.477 2.451-3.192 2.451-2.795 2.451-2.4 2.451-1.913 2.45-1.41 2.431-.88 2.451-.351 2.451.22 2.45.748 2.452 1.298 2.45 1.806 2.452 2.288 2.45 2.707 2.452 3.103 2.45 3.412 2.432 3.697 2.451 3.874 2.451 4.006 2.451 4.027 2.451 4.029L65 40.689l2.451 3.741 2.45 3.5 2.452 3.191 2.45 2.818 2.431 2.399 2.45 1.914 2.452 1.43 2.45.903 2.452.352 2.45-.197 2.452-.748 2.45-1.278 2.451-1.804 2.451-2.268 2.43-2.706 2.452-3.081 2.45-3.412 2.451-3.698 2.451-3.873 2.451-3.984.105-.172" fill="none" stroke="#fff" stroke-width="3.138" stroke-miterlimit="10"/>
</svg>
